<?xml version="1.0" encoding="UTF-8" standalone="no"?>
<svg xmlns="http://www.w3.org/2000/svg"
     xmlns:xlink="http://www.w3.org/1999/xlink"
     width="560px" height="415px" viewBox="0 0 560 415">
<title>gl2ps_renderer figure</title>
<desc>
Creator: GL2PS 1.3.9, (C) 1999-2015 C. Geuzaine
For: Octave
CreationDate: Mon Dec 18 18:52:41 2017
</desc>
<defs>
</defs>
<polygon fill="#ffffff" points="0,0 560,0 560,415 0,415"/>
<g shape-rendering="crispEdges">
<polygon fill="#ffffff" points="0,415 560,415 560,0 0,0"/>
<clipPath id="cp00560415">
  <polygon points="0,415 560,415 560,0 0,0"/>
</clipPath>
<g clip-path="url(#cp00560415)">
<polygon fill="#ffffff" points="487.051,32.4023 74.8828,32.4023 74.8828,384.477"/>
<polygon fill="#ffffff" points="74.8828,384.477 487.051,384.477 487.051,32.4023"/>
<polyline fill="none" stroke="#262626" stroke-width="0.5" points="74.8828,384.477 74.8828,380.355"/>
<polyline fill="none" stroke="#262626" stroke-width="0.5" points="157.316,384.477 157.316,380.355"/>
<polyline fill="none" stroke="#262626" stroke-width="0.5" points="239.75,384.477 239.75,380.355"/>
<polyline fill="none" stroke="#262626" stroke-width="0.5" points="322.184,384.477 322.184,380.355"/>
<polyline fill="none" stroke="#262626" stroke-width="0.5" points="404.617,384.477 404.617,380.355"/>
<polyline fill="none" stroke="#262626" stroke-width="0.5" points="487.051,384.477 487.051,380.355"/>
<text fill="#262626" x="74.8828" y="389.48" font-size="10" text-anchor="middle" baseline-shift="-10" font-family="Helvetica">0</text>
<text fill="#262626" x="157.316" y="389.48" font-size="10" text-anchor="middle" baseline-shift="-10" font-family="Helvetica">0.2</text>
<text fill="#262626" x="239.75" y="389.48" font-size="10" text-anchor="middle" baseline-shift="-10" font-family="Helvetica">0.4</text>
<text fill="#262626" x="322.184" y="389.48" font-size="10" text-anchor="middle" baseline-shift="-10" font-family="Helvetica">0.6</text>
<text fill="#262626" x="404.617" y="389.48" font-size="10" text-anchor="middle" baseline-shift="-10" font-family="Helvetica">0.8</text>
<text fill="#262626" x="487.051" y="389.48" font-size="10" text-anchor="middle" baseline-shift="-10" font-family="Helvetica">1</text>
<polyline fill="none" stroke="#262626" stroke-width="0.5" points="74.8828,384.477 79.0078,384.477"/>
<polyline fill="none" stroke="#262626" stroke-width="0.5" points="74.8828,320.465 79.0078,320.465"/>
<polyline fill="none" stroke="#262626" stroke-width="0.5" points="74.8828,256.449 79.0078,256.449"/>
<polyline fill="none" stroke="#262626" stroke-width="0.5" points="74.8828,192.438 79.0078,192.438"/>
<polyline fill="none" stroke="#262626" stroke-width="0.5" points="74.8828,128.422 79.0078,128.422"/>
<polyline fill="none" stroke="#262626" stroke-width="0.5" points="74.8828,64.4102 79.0078,64.4102"/>
<text fill="#262626" x="69.8789" y="384.48" font-size="10" text-anchor="end" baseline-shift="-5" font-family="Helvetica">0</text>
<text fill="#262626" x="69.8789" y="320.469" font-size="10" text-anchor="end" baseline-shift="-5" font-family="Helvetica">200000</text>
<text fill="#262626" x="69.8789" y="256.453" font-size="10" text-anchor="end" baseline-shift="-5" font-family="Helvetica">400000</text>
<text fill="#262626" x="69.8789" y="192.441" font-size="10" text-anchor="end" baseline-shift="-5" font-family="Helvetica">600000</text>
<text fill="#262626" x="69.8789" y="128.426" font-size="10" text-anchor="end" baseline-shift="-5" font-family="Helvetica">800000</text>
<text fill="#262626" x="69.8789" y="64.4141" font-size="10" text-anchor="end" baseline-shift="-5" font-family="Helvetica">1e+006</text>
<polyline fill="none" stroke="#262626" stroke-width="0.5" stroke-dasharray="16,0" points="74.8828,384.477 487.051,384.477"/>
<polyline fill="none" stroke="#262626" stroke-width="0.5" stroke-dasharray="16,0" points="74.8828,384.477 74.8828,32.4023"/>
<text fill="#262626" x="280.969" y="401.48" font-size="11" text-anchor="middle" baseline-shift="-11" font-family="Helvetica">Number of inversions (scaled from 0 to 1)</text>
<text fill="#262626" x="27.8828" y="208.445" font-size="11" transform="rotate(-90, 27.8828, 208.445)" text-anchor="middle" baseline-shift="0" font-family="Helvetica">Number of steps</text>
<polyline fill="none" stroke="#ff00ff" stroke-width="2" points="486.227,65.1875 486.637,64.7305"/>
<polyline fill="none" stroke="#ff0000" stroke-width="2" points="74.8828,62.8086 75.2969,62.8086 75.707,62.8086 76.1211,62.8086 76.5313,62.8086 76.9453,62.8086 77.3594,62.8086 77.7695,62.8086 78.1836,62.8086 78.5977,62.8086 79.0078,62.8086 79.4219,62.8086 79.832,62.8086 80.2461,62.8086 80.6602,62.8086 81.0703,62.8086 81.4844,62.8086 81.8984,62.8086 82.3086,62.8086 82.7227,62.8086 83.1328,62.8086 83.5469,62.8086 83.9609,62.8086 84.3711,62.8086 84.7852,62.8086 85.1992,62.8086 85.6094,62.8086 86.0234,62.8086 86.4336,62.8086 86.8477,62.8086 87.2617,62.8086 87.6719,62.8086 88.0859,62.8086 88.4961,62.8086 88.9102,62.8086 89.3242,62.8086 89.7344,62.8086 90.1484,62.8086 90.5625,62.8086 90.9727,62.8086 91.3867,62.8086 91.7969,62.8086 92.2109,62.8086 92.625,62.8086 93.0352,62.8086 93.4492,62.8086 93.8633,62.8086 94.2734,62.8086 94.6875,62.8086 95.0977,62.8086 95.5117,62.8086 95.9258,62.8086 96.3359,62.8086 96.75,62.8086 97.1641,62.8086 97.5742,62.8086 97.9883,62.8086 98.3984,62.8086 98.8125,62.8086 99.2266,62.8086 99.6367,62.8086 100.051,62.8086 100.461,62.8086 100.875,62.8086 101.289,62.8086 101.699,62.8086 102.113,62.8086 102.527,62.8086 102.938,62.8086 103.352,62.8086 103.762,62.8086 104.176,62.8086 104.59,62.8086 105,62.8086 105.414,62.8086 105.828,62.8086 106.238,62.8086 106.652,62.8086 107.063,62.8086 107.477,62.8086 107.891,62.8086 108.301,62.8086 108.715,62.8086 109.129,62.8086 109.539,62.8086 109.953,62.8086 110.363,62.8086 110.777,62.8086 111.191,62.8086 111.602,62.8086 112.016,62.8086 112.426,62.8086 112.84,62.8086 113.254,62.8086 113.664,62.8086 114.078,62.8086 114.492,62.8086 114.902,62.8086 115.316,62.8086 115.727,62.8086 116.141,62.8086 116.555,62.8086 116.965,62.8086 117.379,62.8086 117.793,62.8086 118.203,62.8086 118.617,62.8086 119.027,62.8086 119.441,62.8086 119.855,62.8086 120.266,62.8086 120.68,62.8086 121.094,62.8086 121.504,62.8086 121.918,62.8086 122.328,62.8086 122.742,62.8086 123.156,62.8086 123.566,62.8086 123.98,62.8086 124.391,62.8086 124.805,62.8086 125.219,62.8086 125.629,62.8086 126.043,62.8086 126.457,62.8086 126.867,62.8086 127.281,62.8086 127.691,62.8086 128.105,62.8086 128.52,62.8086 128.93,62.8086 129.344,62.8086 129.758,62.8086 130.168,62.8086 130.582,62.8086 130.992,62.8086 131.406,62.8086 131.82,62.8086 132.23,62.8086 132.645,62.8086 133.059,62.8086 133.469,62.8086 133.883,62.8086 134.293,62.8086 134.707,62.8086 135.121,62.8086 135.531,62.8086 135.945,62.8086 136.355,62.8086 136.77,62.8086 137.184,62.8086 137.594,62.8086 138.008,62.8086 138.422,62.8086 138.832,62.8086 139.246,62.8086 139.656,62.8086 140.07,62.8086 140.484,62.8086 140.895,62.8086 141.309,62.8086 141.723,62.8086 142.133,62.8086 142.547,62.8086 142.957,62.8086 143.371,62.8086 143.785,62.8086 144.195,62.8086 144.609,62.8086 145.023,62.8086 145.434,62.8086 145.848,62.8086 146.258,62.8086 146.672,62.8086 147.086,62.8086 147.496,62.8086 147.91,62.8086 148.32,62.8086 148.734,62.8086 149.148,62.8086 149.559,62.8086 149.973,62.8086 150.387,62.8086 150.797,62.8086 151.211,62.8086 151.621,62.8086 152.035,62.8086 152.449,62.8086 152.859,62.8086 153.273,62.8086 153.688,62.8086 154.098,62.8086 154.512,62.8086 154.922,62.8086 155.336,62.8086 155.75,62.8086 156.16,62.8086 156.574,62.8086 156.988,62.8086 157.398,62.8086 157.813,62.8086 158.223,62.8086 158.637,62.8086 159.051,62.8086 159.461,62.8086 159.875,62.8086 160.285,62.8086 160.699,62.8086 161.113,62.8086 161.523,62.8086 161.938,62.8086 162.352,62.8086 162.762,62.8086 163.176,62.8086 163.586,62.8086 164,62.8086 164.414,62.8086 164.824,62.8086 165.238,62.8086 165.652,62.8086 166.063,62.8086 166.477,62.8086 166.887,62.8086 167.301,62.8086 167.715,62.8086 168.125,62.8086 168.539,62.8086 168.953,62.8086 169.363,62.8086 169.777,62.8086 170.188,62.8086 170.602,62.8086 171.016,62.8086 171.426,62.8086 171.84,62.8086 172.25,62.8086 172.664,62.8086 173.078,62.8086 173.488,62.8086 173.902,62.8086 174.316,62.8086 174.727,62.8086 175.141,62.8086 175.551,62.8086 175.965,62.8086 176.379,62.8086 176.789,62.8086 177.203,62.8086 177.617,62.8086 178.027,62.8086 178.441,62.8086 178.852,62.8086 179.266,62.8086 179.68,62.8086 180.09,62.8086 180.504,62.8086 180.918,62.8086 181.328,62.8086 181.742,62.8086 182.152,62.8086 182.566,62.8086 182.98,62.8086 183.391,62.8086 183.805,62.8086 184.215,62.8086 184.629,62.8086 185.043,62.8086 185.453,62.8086 185.867,62.8086 186.281,62.8086 186.691,62.8086 187.105,62.8086 187.516,62.8086 187.93,62.8086 188.344,62.8086 188.754,62.8086 189.168,62.8086 189.582,62.8086 189.992,62.8086 190.406,62.8086 190.816,62.8086 191.23,62.8086 191.645,62.8086 192.055,62.8086 192.469,62.8086 192.883,62.8086 193.293,62.8086 193.707,62.8086 194.117,62.8086 194.531,62.8086 194.945,62.8086 195.355,62.8086 195.77,62.8086 196.18,62.8086 196.594,62.8086 197.008,62.8086 197.418,62.8086 197.832,62.8086 198.246,62.8086 198.656,62.8086 199.07,62.8086 199.48,62.8086 199.895,62.8086 200.309,62.8086 200.719,62.8086 201.133,62.8086 201.547,62.8086 201.957,62.8086 202.371,62.8086 202.781,62.8086 203.195,62.8086 203.609,62.8086 204.02,62.8086 204.434,62.8086 204.848,62.8086 205.258,62.8086 205.672,62.8086 206.082,62.8086 206.496,62.8086 206.91,62.8086 207.32,62.8086 207.734,62.8086 208.145,62.8086 208.559,62.8086 208.973,62.8086 209.383,62.8086 209.797,62.8086 210.211,62.8086 210.621,62.8086 211.035,62.8086 211.445,62.8086 211.859,62.8086 212.273,62.8086 212.684,62.8086 213.098,62.8086 213.512,62.8086 213.922,62.8086 214.336,62.8086 214.746,62.8086 215.16,62.8086 215.574,62.8086 215.984,62.8086 216.398,62.8086 216.813,62.8086 217.223,62.8086 217.637,62.8086 218.047,62.8086 218.461,62.8086 218.875,62.8086 219.285,62.8086 219.699,62.8086 220.109,62.8086 220.523,62.8086 220.938,62.8086 221.348,62.8086 221.762,62.8086 222.176,62.8086 222.586,62.8086 223,62.8086 223.41,62.8086 223.824,62.8086 224.238,62.8086 224.648,62.8086 225.063,62.8086 225.477,62.8086 225.887,62.8086 226.301,62.8086 226.711,62.8086 227.125,62.8086 227.539,62.8086 227.949,62.8086 228.363,62.8086 228.777,62.8086 229.188,62.8086 229.602,62.8086 230.012,62.8086 230.426,62.8086 230.84,62.8086 231.25,62.8086 231.664,62.8086 232.074,62.8086 232.488,62.8086 232.902,62.8086 233.313,62.8086 233.727,62.8086 234.141,62.8086 234.551,62.8086 234.965,62.8086 235.375,62.8086 235.789,62.8086 236.203,62.8086 236.613,62.8086 237.027,62.8086 237.441,62.8086 237.852,62.8086 238.266,62.8086 238.676,62.8086 239.09,62.8086 239.504,62.8086 239.914,62.8086 240.328,62.8086 240.742,62.8086 241.152,62.8086 241.566,62.8086 241.977,62.8086 242.391,62.8086 242.805,62.8086 243.215,62.8086 243.629,62.8086 244.039,62.8086 244.453,62.8086 244.867,62.8086 245.277,62.8086 245.691,62.8086 246.105,62.8086 246.516,62.8086 246.93,62.8086 247.34,62.8086 247.754,62.8086 248.168,62.8086 248.578,62.8086 248.992,62.8086 249.406,62.8086 249.816,62.8086 250.23,62.8086 250.641,62.8086 251.055,62.8086 251.469,62.8086 251.879,62.8086 252.293,62.8086 252.707,62.8086 253.117,62.8086 253.531,62.8086 253.941,62.8086 254.355,62.8086 254.77,62.8086 255.18,62.8086 255.594,62.8086 256.004,62.8086 256.418,62.8086 256.832,62.8086 257.242,62.8086 257.656,62.8086 258.07,62.8086 258.48,62.8086 258.895,62.8086 259.305,62.8086 259.719,62.8086 260.133,62.8086 260.543,62.8086 260.957,62.8086 261.371,62.8086 261.781,62.8086 262.195,62.8086 262.605,62.8086 263.02,62.8086 263.434,62.8086 263.844,62.8086 264.258,62.8086 264.672,62.8086 265.082,62.8086 265.496,62.8086 265.906,62.8086 266.32,62.8086 266.734,62.8086 267.145,62.8086 267.559,62.8086 267.969,62.8086 268.383,62.8086 268.797,62.8086 269.207,62.8086 269.621,62.8086 270.035,62.8086 270.445,62.8086 270.859,62.8086 271.27,62.8086 271.684,62.8086 272.098,62.8086 272.508,62.8086 272.922,62.8086 273.336,62.8086 273.746,62.8086 274.16,62.8086 274.57,62.8086 274.984,62.8086 275.398,62.8086 275.809,62.8086 276.223,62.8086 276.637,62.8086 277.047,62.8086 277.461,62.8086 277.871,62.8086 278.285,62.8086 278.699,62.8086 279.109,62.8086 279.523,62.8086 279.934,62.8086 280.348,62.8086 280.762,62.8086 281.172,62.8086 281.586,62.8086 282,62.8086 282.41,62.8086 282.824,62.8086 283.234,62.8086 283.648,62.8086 284.063,62.8086 284.473,62.8086 284.887,62.8086 285.301,62.8086 285.711,62.8086 286.125,62.8086 286.535,62.8086 286.949,62.8086 287.363,62.8086 287.773,62.8086 288.188,62.8086 288.602,62.8086 289.012,62.8086 289.426,62.8086 289.836,62.8086 290.25,62.8086 290.664,62.8086 291.074,62.8086 291.488,62.8086 291.898,62.8086 292.313,62.8086 292.727,62.8086 293.137,62.8086 293.551,62.8086 293.965,62.8086 294.375,62.8086 294.789,62.8086 295.199,62.8086 295.613,62.8086 296.027,62.8086 296.438,62.8086 296.852,62.8086 297.266,62.8086 297.676,62.8086 298.09,62.8086 298.5,62.8086 298.914,62.8086 299.328,62.8086 299.738,62.8086 300.152,62.8086 300.566,62.8086 300.977,62.8086 301.391,62.8086 301.801,62.8086 302.215,62.8086 302.629,62.8086 303.039,62.8086 303.453,62.8086 303.863,62.8086 304.277,62.8086 304.691,62.8086 305.102,62.8086 305.516,62.8086 305.93,62.8086 306.34,62.8086 306.754,62.8086 307.164,62.8086 307.578,62.8086 307.992,62.8086 308.402,62.8086 308.816,62.8086 309.23,62.8086 309.641,62.8086 310.055,62.8086 310.465,62.8086 310.879,62.8086 311.293,62.8086 311.703,62.8086 312.117,62.8086 312.531,62.8086 312.941,62.8086 313.355,62.8086 313.766,62.8086 314.18,62.8086 314.594,62.8086 315.004,62.8086 315.418,62.8086 315.828,62.8086 316.242,62.8086 316.656,62.8086 317.066,62.8086 317.48,62.8086 317.895,62.8086 318.305,62.8086 318.719,62.8086 319.129,62.8086 319.543,62.8086 319.957,62.8086 320.367,62.8086 320.781,62.8086 321.195,62.8086 321.605,62.8086 322.02,62.8086 322.43,62.8086 322.844,62.8086 323.258,62.8086 323.668,62.8086 324.082,62.8086 324.496,62.8086 324.906,62.8086 325.32,62.8086 325.73,62.8086 326.145,62.8086 326.559,62.8086 326.969,62.8086 327.383,62.8086 327.793,62.8086 328.207,62.8086 328.621,62.8086 329.031,62.8086 329.445,62.8086 329.859,62.8086 330.27,62.8086 330.684,62.8086 331.094,62.8086 331.508,62.8086 331.922,62.8086 332.332,62.8086 332.746,62.8086 333.16,62.8086 333.57,62.8086 333.984,62.8086 334.395,62.8086 334.809,62.8086 335.223,62.8086 335.633,62.8086 336.047,62.8086 336.461,62.8086 336.871,62.8086 337.285,62.8086 337.695,62.8086 338.109,62.8086 338.523,62.8086 338.934,62.8086 339.348,62.8086 339.758,62.8086 340.172,62.8086 340.586,62.8086 340.996,62.8086 341.41,62.8086 341.824,62.8086 342.234,62.8086 342.648,62.8086 343.059,62.8086 343.473,62.8086 343.887,62.8086 344.297,62.8086 344.711,62.8086 345.125,62.8086 345.535,62.8086 345.949,62.8086 346.359,62.8086 346.773,62.8086 347.188,62.8086 347.598,62.8086 348.012,62.8086 348.426,62.8086 348.836,62.8086 349.25,62.8086 349.66,62.8086 350.074,62.8086 350.488,62.8086 350.898,62.8086 351.313,62.8086 351.723,62.8086 352.137,62.8086 352.551,62.8086 352.961,62.8086 353.375,62.8086 353.789,62.8086 354.199,62.8086 354.613,62.8086 355.023,62.8086 355.438,62.8086 355.852,62.8086 356.262,62.8086 356.676,62.8086 357.09,62.8086 357.5,62.8086 357.914,62.8086 358.324,62.8086 358.738,62.8086 359.152,62.8086 359.563,62.8086 359.977,62.8086 360.391,62.8086 360.801,62.8086 361.215,62.8086 361.625,62.8086 362.039,62.8086 362.453,62.8086 362.863,62.8086 363.277,62.8086 363.688,62.8086 364.102,62.8086 364.516,62.8086 364.926,62.8086 365.34,62.8086 365.754,62.8086 366.164,62.8086 366.578,62.8086 366.988,62.8086 367.402,62.8086 367.816,62.8086 368.227,62.8086 368.641,62.8086 369.055,62.8086 369.465,62.8086 369.879,62.8086 370.289,62.8086 370.703,62.8086 371.117,62.8086 371.527,62.8086 371.941,62.8086 372.355,62.8086 372.766,62.8086 373.18,62.8086 373.59,62.8086 374.004,62.8086 374.418,62.8086 374.828,62.8086 375.242,62.8086 375.652,62.8086 376.066,62.8086 376.48,62.8086 376.891,62.8086 377.305,62.8086 377.719,62.8086 378.129,62.8086 378.543,62.8086 378.953,62.8086 379.367,62.8086 379.781,62.8086 380.191,62.8086 380.605,62.8086 381.02,62.8086 381.43,62.8086 381.844,62.8086 382.254,62.8086 382.668,62.8086 383.082,62.8086 383.492,62.8086 383.906,62.8086 384.316,62.8086 384.73,62.8086 385.145,62.8086 385.555,62.8086 385.969,62.8086 386.383,62.8086 386.793,62.8086 387.207,62.8086 387.617,62.8086 388.031,62.8086 388.445,62.8086 388.855,62.8086 389.27,62.8086 389.684,62.8086 390.094,62.8086 390.508,62.8086 390.918,62.8086 391.332,62.8086 391.746,62.8086 392.156,62.8086 392.57,62.8086 392.984,62.8086 393.395,62.8086 393.809,62.8086 394.219,62.8086 394.633,62.8086 395.047,62.8086 395.457,62.8086 395.871,62.8086 396.285,62.8086 396.695,62.8086 397.109,62.8086 397.52,62.8086 397.934,62.8086 398.348,62.8086 398.758,62.8086 399.172,62.8086 399.582,62.8086 399.996,62.8086 400.41,62.8086 400.82,62.8086 401.234,62.8086 401.648,62.8086 402.059,62.8086 402.473,62.8086 402.883,62.8086 403.297,62.8086 403.711,62.8086 404.121,62.8086 404.535,62.8086 404.949,62.8086 405.359,62.8086 405.773,62.8086 406.184,62.8086 406.598,62.8086 407.012,62.8086 407.422,62.8086 407.836,62.8086 408.25,62.8086 408.66,62.8086 409.074,62.8086 409.484,62.8086 409.898,62.8086 410.313,62.8086 410.723,62.8086 411.137,62.8086 411.547,62.8086 411.961,62.8086 412.375,62.8086 412.785,62.8086 413.199,62.8086 413.613,62.8086 414.023,62.8086 414.438,62.8086 414.848,62.8086 415.262,62.8086 415.676,62.8086 416.086,62.8086 416.5,62.8086 416.914,62.8086 417.324,62.8086 417.738,62.8086 418.148,62.8086 418.563,62.8086 418.977,62.8086 419.387,62.8086 419.801,62.8086 420.211,62.8086 420.625,62.8086 421.039,62.8086 421.449,62.8086 421.863,62.8086 422.277,62.8086 422.688,62.8086 423.102,62.8086 423.512,62.8086 423.926,62.8086 424.34,62.8086 424.75,62.8086 425.164,62.8086 425.578,62.8086 425.988,62.8086 426.402,62.8086 426.813,62.8086 427.227,62.8086 427.641,62.8086 428.051,62.8086 428.465,62.8086 428.879,62.8086 429.289,62.8086 429.703,62.8086 430.113,62.8086 430.527,62.8086 430.941,62.8086 431.352,62.8086 431.766,62.8086 432.18,62.8086 432.59,62.8086 433.004,62.8086 433.414,62.8086 433.828,62.8086 434.242,62.8086 434.652,62.8086 435.066,62.8086 435.477,62.8086 435.891,62.8086 436.305,62.8086 436.715,62.8086 437.129,62.8086 437.543,62.8086 437.953,62.8086 438.367,62.8086 438.777,62.8086 439.191,62.8086 439.605,62.8086 440.016,62.8086 440.43,62.8086 440.844,62.8086 441.254,62.8086 441.668,62.8086 442.078,62.8086 442.492,62.8086 442.906,62.8086 443.316,62.8086 443.73,62.8086 444.141,62.8086 444.555,62.8086 444.969,62.8086 445.379,62.8086 445.793,62.8086 446.207,62.8086 446.617,62.8086 447.031,62.8086 447.441,62.8086 447.855,62.8086 448.27,62.8086 448.68,62.8086 449.094,62.8086 449.508,62.8086 449.918,62.8086 450.332,62.8086 450.742,62.8086 451.156,62.8086 451.57,62.8086 451.98,62.8086 452.395,62.8086 452.809,62.8086 453.219,62.8086 453.633,62.8086 454.043,62.8086 454.457,62.8086 454.871,62.8086 455.281,62.8086 455.695,62.8086 456.105,62.8086 456.52,62.8086 456.934,62.8086 457.344,62.8086 457.758,62.8086 458.172,62.8086 458.582,62.8086 458.996,62.8086 459.406,62.8086 459.82,62.8086 460.234,62.8086 460.645,62.8086 461.059,62.8086 461.473,62.8086 461.883,62.8086 462.297,62.8086 462.707,62.8086 463.121,62.8086 463.535,62.8086 463.945,62.8086 464.359,62.8086 464.773,62.8086 465.184,62.8086 465.598,62.8086 466.008,62.8086 466.422,62.8086 466.836,62.8086 467.246,62.8086 467.66,62.8086 468.07,62.8086 468.484,62.8086 468.898,62.8086 469.309,62.8086 469.723,62.8086 470.137,62.8086 470.547,62.8086 470.961,62.8086 471.371,62.8086 471.785,62.8086 472.199,62.8086 472.609,62.8086 473.023,62.8086 473.438,62.8086 473.848,62.8086 474.262,62.8086 474.672,62.8086 475.086,62.8086 475.5,62.8086 475.91,62.8086 476.324,62.8086 476.738,62.8086 477.148,62.8086 477.563,62.8086 477.973,62.8086 478.387,62.8086 478.801,62.8086 479.211,62.8086 479.625,62.8086 480.035,62.8086 480.449,62.8086 480.863,62.8086 481.273,62.8086 481.688,62.8086 482.102,62.8086 482.512,62.8086 482.926,62.8086 483.336,62.8086 483.75,62.8086 484.164,62.8086 484.574,62.8086 484.988,62.8086 485.402,62.8086 485.813,62.8086 486.227,62.8086 486.637,62.8086 487.051,62.8086"/>
<polyline fill="none" stroke="#00ff00" stroke-width="2" points="74.8828,383.195 75.2969,382.875 75.707,382.555 76.1211,382.234 76.5313,381.914 76.9453,381.594 77.3594,381.273 77.7695,380.953 78.1836,380.633 78.5977,380.313 79.0078,379.988 79.4219,379.668 79.832,379.348 80.2461,379.027 80.6602,378.707 81.0703,378.387 81.4844,378.066 81.8984,377.746 82.3086,377.426 82.7227,377.105 83.1328,376.781 83.5469,376.461 83.9609,376.141 84.3711,375.82 84.7852,375.5 85.1992,375.18 85.6094,374.859 86.0234,374.539 86.4336,374.219 86.8477,373.898 87.2617,373.574 87.6719,373.254 88.0859,372.934 88.4961,372.613 88.9102,372.293 89.3242,371.973 89.7344,371.652 90.1484,371.332 90.5625,371.012 90.9727,370.691 91.3867,370.367 91.7969,370.047 92.2109,369.727 92.625,369.406 93.0352,369.086 93.4492,368.766 93.8633,368.445 94.2734,368.125 94.6875,367.805 95.0977,367.484 95.5117,367.16 95.9258,366.84 96.3359,366.52 96.75,366.199 97.1641,365.879 97.5742,365.559 97.9883,365.238 98.3984,364.918 98.8125,364.598 99.2266,364.277 99.6367,363.953 100.051,363.633 100.461,363.313 100.875,362.992 101.289,362.672 101.699,362.352 102.113,362.031 102.527,361.711 102.938,361.391 103.352,361.066 103.762,360.746 104.176,360.426 104.59,360.105 105,359.785 105.414,359.465 105.828,359.145 106.238,358.824 106.652,358.504 107.063,358.184 107.477,357.859 107.891,357.539 108.301,357.219 108.715,356.898 109.129,356.578 109.539,356.258 109.953,355.938 110.363,355.617 110.777,355.297 111.191,354.977 111.602,354.652 112.016,354.332 112.426,354.012 112.84,353.691 113.254,353.371 113.664,353.051 114.078,352.73 114.492,352.41 114.902,352.09 115.316,351.77 115.727,351.445 116.141,351.125 116.555,350.805 116.965,350.484 117.379,350.164 117.793,349.844 118.203,349.523 118.617,349.203 119.027,348.883 119.441,348.563 119.855,348.238 120.266,347.918 120.68,347.598 121.094,347.277 121.504,346.957 121.918,346.637 122.328,346.316 122.742,345.996 123.156,345.676 123.566,345.355 123.98,345.031 124.391,344.711 124.805,344.391 125.219,344.07 125.629,343.75 126.043,343.43 126.457,343.109 126.867,342.789 127.281,342.469 127.691,342.148 128.105,341.824 128.52,341.504 128.93,341.184 129.344,340.863 129.758,340.543 130.168,340.223 130.582,339.902 130.992,339.582 131.406,339.262 131.82,338.941 132.23,338.617 132.645,338.297 133.059,337.977 133.469,337.656 133.883,337.336 134.293,337.016 134.707,336.695 135.121,336.375 135.531,336.055 135.945,335.734 136.355,335.41 136.77,335.09 137.184,334.77 137.594,334.449 138.008,334.129 138.422,333.809 138.832,333.488 139.246,333.168 139.656,332.848 140.07,332.527 140.484,332.203 140.895,331.883 141.309,331.563 141.723,331.242 142.133,330.922 142.547,330.602 142.957,330.281 143.371,329.961 143.785,329.641 144.195,329.32 144.609,328.996 145.023,328.676 145.434,328.355 145.848,328.035 146.258,327.715 146.672,327.395 147.086,327.074 147.496,326.754 147.91,326.434 148.32,326.109 148.734,325.789 149.148,325.469 149.559,325.148 149.973,324.828 150.387,324.508 150.797,324.188 151.211,323.867 151.621,323.547 152.035,323.227 152.449,322.906 152.859,322.582 153.273,322.262 153.688,321.941 154.098,321.621 154.512,321.301 154.922,320.98 155.336,320.66 155.75,320.34 156.16,320.02 156.574,319.695 156.988,319.375 157.398,319.055 157.813,318.734 158.223,318.414 158.637,318.094 159.051,317.773 159.461,317.453 159.875,317.133 160.285,316.813 160.699,316.488 161.113,316.168 161.523,315.848 161.938,315.527 162.352,315.207 162.762,314.887 163.176,314.566 163.586,314.246 164,313.926 164.414,313.605 164.824,313.285 165.238,312.961 165.652,312.641 166.063,312.32 166.477,312 166.887,311.68 167.301,311.359 167.715,311.039 168.125,310.719 168.539,310.398 168.953,310.074 169.363,309.754 169.777,309.434 170.188,309.113 170.602,308.793 171.016,308.473 171.426,308.152 171.84,307.832 172.25,307.512 172.664,307.191 173.078,306.867 173.488,306.547 173.902,306.227 174.316,305.906 174.727,305.586 175.141,305.266 175.551,304.945 175.965,304.625 176.379,304.305 176.789,303.984 177.203,303.66 177.617,303.34 178.027,303.02 178.441,302.699 178.852,302.379 179.266,302.059 179.68,301.738 180.09,301.418 180.504,301.098 180.918,300.777 181.328,300.453 181.742,300.133 182.152,299.813 182.566,299.492 182.98,299.172 183.391,298.852 183.805,298.531 184.215,298.211 184.629,297.891 185.043,297.57 185.453,297.246 185.867,296.926 186.281,296.605 186.691,296.285 187.105,295.965 187.516,295.645 187.93,295.324 188.344,295.004 188.754,294.684 189.168,294.363 189.582,294.039 189.992,293.719 190.406,293.398 190.816,293.078 191.23,292.758 191.645,292.438 192.055,292.117 192.469,291.797 192.883,291.477 193.293,291.156 193.707,290.832 194.117,290.512 194.531,290.191 194.945,289.871 195.355,289.551 195.77,289.23 196.18,288.91 196.594,288.59 197.008,288.27 197.418,287.949 197.832,287.625 198.246,287.305 198.656,286.984 199.07,286.664 199.48,286.344 199.895,286.023 200.309,285.703 200.719,285.383 201.133,285.063 201.547,284.738 201.957,284.418 202.371,284.098 202.781,283.777 203.195,283.457 203.609,283.137 204.02,282.816 204.434,282.496 204.848,282.176 205.258,281.855 205.672,281.531 206.082,281.211 206.496,280.891 206.91,280.57 207.32,280.25 207.734,279.93 208.145,279.609 208.559,279.289 208.973,278.969 209.383,278.648 209.797,278.328 210.211,278.004 210.621,277.684 211.035,277.363 211.445,277.043 211.859,276.723 212.273,276.402 212.684,276.082 213.098,275.762 213.512,275.441 213.922,275.121 214.336,274.797 214.746,274.477 215.16,274.156 215.574,273.836 215.984,273.516 216.398,273.195 216.813,272.875 217.223,272.555 217.637,272.234 218.047,271.91 218.461,271.59 218.875,271.27 219.285,270.949 219.699,270.629 220.109,270.309 220.523,269.988 220.938,269.668 221.348,269.348 221.762,269.027 222.176,268.707 222.586,268.383 223,268.063 223.41,267.742 223.824,267.422 224.238,267.102 224.648,266.781 225.063,266.461 225.477,266.141 225.887,265.82 226.301,265.496 226.711,265.176 227.125,264.855 227.539,264.535 227.949,264.215 228.363,263.895 228.777,263.574 229.188,263.254 229.602,262.934 230.012,262.613 230.426,262.289 230.84,261.969 231.25,261.648 231.664,261.328 232.074,261.008 232.488,260.688 232.902,260.367 233.313,260.047 233.727,259.727 234.141,259.406 234.551,259.086 234.965,258.762 235.375,258.441 235.789,258.121 236.203,257.801 236.613,257.48 237.027,257.16 237.441,256.84 237.852,256.52 238.266,256.199 238.676,255.875 239.09,255.555 239.504,255.234 239.914,254.914 240.328,254.594 240.742,254.273 241.152,253.953 241.566,253.633 241.977,253.313 242.391,252.992 242.805,252.668 243.215,252.348 243.629,252.027 244.039,251.707 244.453,251.387 244.867,251.066 245.277,250.746 245.691,250.426 246.105,250.105 246.516,249.785 246.93,249.465 247.34,249.141 247.754,248.82 248.168,248.5 248.578,248.18 248.992,247.859 249.406,247.539 249.816,247.219 250.23,246.898 250.641,246.574 251.055,246.254 251.469,245.934 251.879,245.613 252.293,245.293 252.707,244.973 253.117,244.652 253.531,244.332 253.941,244.012 254.355,243.691 254.77,243.371 255.18,243.051 255.594,242.727 256.004,242.406 256.418,242.086 256.832,241.766 257.242,241.445 257.656,241.125 258.07,240.805 258.48,240.484 258.895,240.164 259.305,239.84 259.719,239.52 260.133,239.199 260.543,238.879 260.957,238.559 261.371,238.238 261.781,237.918 262.195,237.598 262.605,237.277 263.02,236.957 263.434,236.633 263.844,236.313 264.258,235.992 264.672,235.672 265.082,235.352 265.496,235.031 265.906,234.711 266.32,234.391 266.734,234.07 267.145,233.75 267.559,233.426 267.969,233.105 268.383,232.785 268.797,232.465 269.207,232.145 269.621,231.824 270.035,231.504 270.445,231.184 270.859,230.863 271.27,230.543 271.684,230.219 272.098,229.898 272.508,229.578 272.922,229.258 273.336,228.938 273.746,228.617 274.16,228.297 274.57,227.977 274.984,227.656 275.398,227.332 275.809,227.012 276.223,226.691 276.637,226.371 277.047,226.051 277.461,225.73 277.871,225.41 278.285,225.09 278.699,224.77 279.109,224.449 279.523,224.129 279.934,223.805 280.348,223.484 280.762,223.164 281.172,222.844 281.586,222.523 282,222.203 282.41,221.883 282.824,221.563 283.234,221.238 283.648,220.918 284.063,220.598 284.473,220.277 284.887,219.957 285.301,219.637 285.711,219.316 286.125,218.996 286.535,218.676 286.949,218.355 287.363,218.035 287.773,217.711 288.188,217.391 288.602,217.07 289.012,216.75 289.426,216.43 289.836,216.109 290.25,215.789 290.664,215.469 291.074,215.148 291.488,214.828 291.898,214.504 292.313,214.184 292.727,213.863 293.137,213.543 293.551,213.223 293.965,212.902 294.375,212.582 294.789,212.262 295.199,211.941 295.613,211.621 296.027,211.297 296.438,210.977 296.852,210.656 297.266,210.336 297.676,210.016 298.09,209.695 298.5,209.375 298.914,209.055 299.328,208.734 299.738,208.41 300.152,208.09 300.566,207.77 300.977,207.449 301.391,207.129 301.801,206.809 302.215,206.488 302.629,206.168 303.039,205.848 303.453,205.527 303.863,205.203 304.277,204.883 304.691,204.563 305.102,204.242 305.516,203.922 305.93,203.602 306.34,203.281 306.754,202.961 307.164,202.641 307.578,202.32 307.992,201.996 308.402,201.676 308.816,201.355 309.23,201.035 309.641,200.715 310.055,200.395 310.465,200.074 310.879,199.754 311.293,199.434 311.703,199.113 312.117,198.789 312.531,198.469 312.941,198.148 313.355,197.828 313.766,197.508 314.18,197.188 314.594,196.867 315.004,196.547 315.418,196.227 315.828,195.902 316.242,195.582 316.656,195.262 317.066,194.941 317.48,194.621 317.895,194.301 318.305,193.98 318.719,193.66 319.129,193.34 319.543,193.02 319.957,192.695 320.367,192.375 320.781,192.055 321.195,191.734 321.605,191.414 322.02,191.094 322.43,190.773 322.844,190.453 323.258,190.133 323.668,189.813 324.082,189.488 324.496,189.168 324.906,188.848 325.32,188.527 325.73,188.207 326.145,187.887 326.559,187.566 326.969,187.246 327.383,186.926 327.793,186.605 328.207,186.285 328.621,185.965 329.031,185.641 329.445,185.32 329.859,185 330.27,184.68 330.684,184.359 331.094,184.039 331.508,183.719 331.922,183.398 332.332,183.078 332.746,182.754 333.16,182.434 333.57,182.113 333.984,181.793 334.395,181.473 334.809,181.152 335.223,180.832 335.633,180.512 336.047,180.191 336.461,179.871 336.871,179.551 337.285,179.227 337.695,178.906 338.109,178.586 338.523,178.266 338.934,177.945 339.348,177.625 339.758,177.305 340.172,176.984 340.586,176.664 340.996,176.34 341.41,176.02 341.824,175.699 342.234,175.379 342.648,175.059 343.059,174.738 343.473,174.418 343.887,174.098 344.297,173.777 344.711,173.457 345.125,173.133 345.535,172.813 345.949,172.492 346.359,172.172 346.773,171.852 347.188,171.531 347.598,171.211 348.012,170.891 348.426,170.57 348.836,170.25 349.25,169.926 349.66,169.605 350.074,169.285 350.488,168.965 350.898,168.645 351.313,168.324 351.723,168.004 352.137,167.684 352.551,167.363 352.961,167.043 353.375,166.723 353.789,166.398 354.199,166.078 354.613,165.758 355.023,165.438 355.438,165.117 355.852,164.797 356.262,164.477 356.676,164.156 357.09,163.836 357.5,163.512 357.914,163.191 358.324,162.871 358.738,162.551 359.152,162.23 359.563,161.91 359.977,161.59 360.391,161.27 360.801,160.949 361.215,160.629 361.625,160.305 362.039,159.984 362.453,159.664 362.863,159.344 363.277,159.023 363.688,158.703 364.102,158.383 364.516,158.063 364.926,157.742 365.34,157.422 365.754,157.098 366.164,156.777 366.578,156.457 366.988,156.137 367.402,155.816 367.816,155.496 368.227,155.176 368.641,154.855 369.055,154.535 369.465,154.215 369.879,153.891 370.289,153.57 370.703,153.25 371.117,152.93 371.527,152.609 371.941,152.289 372.355,151.969 372.766,151.648 373.18,151.328 373.59,151.008 374.004,150.688 374.418,150.363 374.828,150.043 375.242,149.723 375.652,149.402 376.066,149.082 376.48,148.762 376.891,148.441 377.305,148.121 377.719,147.801 378.129,147.48 378.543,147.156 378.953,146.84 379.367,146.516 379.781,146.195 380.191,145.875 380.605,145.555 381.02,145.234 381.43,144.914 381.844,144.594 382.254,144.273 382.668,143.953 383.082,143.629 383.492,143.309 383.906,142.988 384.316,142.668 384.73,142.348 385.145,142.027 385.555,141.707 385.969,141.387 386.383,141.066 386.793,140.746 387.207,140.422 387.617,140.102 388.031,139.781 388.445,139.461 388.855,139.141 389.27,138.82 389.684,138.5 390.094,138.18 390.508,137.859 390.918,137.539 391.332,137.215 391.746,136.895 392.156,136.574 392.57,136.254 392.984,135.934 393.395,135.613 393.809,135.293 394.219,134.973 394.633,134.652 395.047,134.328 395.457,134.008 395.871,133.688 396.285,133.367 396.695,133.047 397.109,132.727 397.52,132.406 397.934,132.086 398.348,131.766 398.758,131.445 399.172,131.121 399.582,130.801 399.996,130.48 400.41,130.16 400.82,129.84 401.234,129.52 401.648,129.199 402.059,128.879 402.473,128.559 402.883,128.238 403.297,127.918 403.711,127.594 404.121,127.273 404.535,126.953 404.949,126.633 405.359,126.313 405.773,125.992 406.184,125.672 406.598,125.352 407.012,125.031 407.422,124.711 407.836,124.387 408.25,124.066 408.66,123.746 409.074,123.426 409.484,123.105 409.898,122.785 410.313,122.465 410.723,122.145 411.137,121.824 411.547,121.504 411.961,121.184 412.375,120.863 412.785,120.539 413.199,120.219 413.613,119.898 414.023,119.578 414.438,119.258 414.848,118.938 415.262,118.617 415.676,118.297 416.086,117.973 416.5,117.652 416.914,117.332 417.324,117.012 417.738,116.691 418.148,116.371 418.563,116.051 418.977,115.73 419.387,115.41 419.801,115.09 420.211,114.77 420.625,114.445 421.039,114.125 421.449,113.805 421.863,113.484 422.277,113.164 422.688,112.844 423.102,112.523 423.512,112.203 423.926,111.883 424.34,111.563 424.75,111.242 425.164,110.918 425.578,110.598 425.988,110.277 426.402,109.957 426.813,109.637 427.227,109.316 427.641,108.996 428.051,108.676 428.465,108.355 428.879,108.035 429.289,107.715 429.703,107.395 430.113,107.07 430.527,106.75 430.941,106.43 431.352,106.109 431.766,105.789 432.18,105.469 432.59,105.148 433.004,104.828 433.414,104.508 433.828,104.188 434.242,103.867 434.652,103.547 435.066,103.223 435.477,102.902 435.891,102.582 436.305,102.262 436.715,101.941 437.129,101.621 437.543,101.301 437.953,100.98 438.367,100.66 438.777,100.336 439.191,100.016 439.605,99.6953 440.016,99.375 440.43,99.0547 440.844,98.7344 441.254,98.4141 441.668,98.0938 442.078,97.7734 442.492,97.4531 442.906,97.1289 443.316,96.8125 443.73,96.4883 444.141,96.168 444.555,95.8477 444.969,95.5273 445.379,95.207 445.793,94.8867 446.207,94.5664 446.617,94.2422 447.031,93.9258 447.441,93.6055 447.855,93.2852 448.27,92.9648 448.68,92.6406 449.094,92.3203 449.508,92 449.918,91.6797 450.332,91.3594 450.742,91.0391 451.156,90.7188 451.57,90.3984 451.98,90.0781 452.395,89.7578 452.809,89.4375 453.219,89.1172 453.633,88.793 454.043,88.4766 454.457,88.1523 454.871,87.832 455.281,87.5117 455.695,87.1914 456.105,86.8711 456.52,86.5508 456.934,86.2305 457.344,85.9102 457.758,85.5898 458.172,85.2695 458.582,84.9492 458.996,84.6289 459.406,84.3047 459.82,83.9844 460.234,83.668 460.645,83.3438 461.059,83.0234 461.473,82.7031 461.883,82.3828 462.297,82.0625 462.707,81.7422 463.121,81.4219 463.535,81.1016 463.945,80.7813 464.359,80.4609 464.773,80.1406 465.184,79.8203 465.598,79.5 466.008,79.1797 466.422,78.8594 466.836,78.5391 467.246,78.2188 467.66,77.8984 468.07,77.5781 468.484,77.2578 468.898,76.9375 469.309,76.6133 469.723,76.293 470.137,75.9727 470.547,75.6563 470.961,75.332 471.371,75.0117 471.785,74.6953 472.199,74.375 472.609,74.0547 473.023,73.7344 473.438,73.4141 473.848,73.0938 474.262,72.7734 474.672,72.4531 475.086,72.1328 475.5,71.8164 475.91,71.4961 476.324,71.1758 476.738,70.8555 477.148,70.5352 477.563,70.2148 477.973,69.8984 478.387,69.5781 478.801,69.2578 479.211,68.9414 479.625,68.6211 480.035,68.3047 480.449,67.9883 480.863,67.6719 481.273,67.3516 481.688,67.0391 482.102,66.7188 482.512,66.4102 482.926,66.0977 483.336,65.7891 483.75,65.4805 484.164,65.1797 484.574,64.8906 484.988,64.6133 485.402,64.3672 485.813,64.1758 486.227,64.0898 486.637,64.0898 487.051,64.0898"/>
<polyline fill="none" stroke="#000000" stroke-width="2" points="74.8828,376.434 75.2969,376.215 75.707,376.078 76.1211,375.98 76.5313,375.906 76.9453,375.855 77.3594,375.805 77.7695,375.762 78.1836,375.742 78.5977,375.703 79.0078,375.672 79.4219,375.645 79.832,375.621 80.2461,375.598 80.6602,375.586 81.0703,375.563 81.4844,375.555 81.8984,375.531 82.3086,375.512 82.7227,375.504 83.1328,375.48 83.5469,375.469 83.9609,375.449 84.3711,375.434 84.7852,375.426 85.1992,375.402 85.6094,375.395 86.0234,375.402 86.4336,375.375 86.8477,375.359 87.2617,375.355 87.6719,375.34 88.0859,375.328 88.4961,375.316 88.9102,375.332 89.3242,375.301 89.7344,375.293 90.1484,375.281 90.5625,375.273 90.9727,375.273 91.3867,375.27 91.7969,375.242 92.2109,375.242 92.625,375.23 93.0352,375.223 93.4492,375.219 93.8633,375.199 94.2734,375.211 94.6875,375.207 95.0977,375.191 95.5117,375.168 95.9258,375.156 96.3359,375.176 96.75,375.164 97.1641,375.164 97.5742,375.16 97.9883,375.168 98.3984,375.156 98.8125,375.16 99.2266,375.141 99.6367,375.145 100.051,375.137 100.461,375.133 100.875,375.109 101.289,375.121 101.699,375.117 102.113,375.109 102.527,375.09 102.938,375.113 103.352,375.082 103.762,375.082 104.176,375.082 104.59,375.066 105,375.07 105.414,375.047 105.828,375.063 106.238,375.055 106.652,375.051 107.063,375.043 107.477,375.039 107.891,375.031 108.301,375.023 108.715,375.027 109.129,375.016 109.539,375.02 109.953,375.027 110.363,375.004 110.777,375.004 111.191,374.973 111.602,374.992 112.016,375 112.426,374.973 112.84,374.961 113.254,374.992 113.664,374.965 114.078,374.988 114.492,374.969 114.902,374.953 115.316,374.961 115.727,374.957 116.141,374.961 116.555,374.934 116.965,374.938 117.379,374.941 117.793,374.945 118.203,374.93 118.617,374.938 119.027,374.934 119.441,374.922 119.855,374.922 120.266,374.906 120.68,374.914 121.094,374.918 121.504,374.895 121.918,374.898 122.328,374.91 122.742,374.883 123.156,374.898 123.566,374.887 123.98,374.875 124.391,374.891 124.805,374.879 125.219,374.867 125.629,374.863 126.043,374.879 126.457,374.867 126.867,374.871 127.281,374.879 127.691,374.852 128.105,374.883 128.52,374.875 128.93,374.867 129.344,374.871 129.758,374.883 130.168,374.859 130.582,374.891 130.992,374.875 131.406,374.875 131.82,374.895 132.23,374.875 132.645,374.848 133.059,374.887 133.469,374.895 133.883,374.871 134.293,374.867 134.707,374.859 135.121,374.875 135.531,374.863 135.945,374.852 136.355,374.871 136.77,374.852 137.184,374.84 137.594,374.848 138.008,374.84 138.422,374.848 138.832,374.844 139.246,374.848 139.656,374.82 140.07,374.824 140.484,374.824 140.895,374.828 141.309,374.816 141.723,374.816 142.133,374.805 142.547,374.809 142.957,374.813 143.371,374.809 143.785,374.813 144.195,374.785 144.609,374.789 145.023,374.801 145.434,374.773 145.848,374.809 146.258,374.805 146.672,374.793 147.086,374.793 147.496,374.789 147.91,374.797 148.32,374.781 148.734,374.777 149.148,374.781 149.559,374.762 149.973,374.746 150.387,374.766 150.797,374.762 151.211,374.762 151.621,374.762 152.035,374.758 152.449,374.754 152.859,374.766 153.273,374.754 153.688,374.746 154.098,374.746 154.512,374.738 154.922,374.742 155.336,374.719 155.75,374.734 156.16,374.738 156.574,374.738 156.988,374.734 157.398,374.73 157.813,374.742 158.223,374.727 158.637,374.73 159.051,374.73 159.461,374.734 159.875,374.723 160.285,374.723 160.699,374.707 161.113,374.703 161.523,374.715 161.938,374.719 162.352,374.711 162.762,374.711 163.176,374.699 163.586,374.727 164,374.719 164.414,374.711 164.824,374.703 165.238,374.703 165.652,374.703 166.063,374.695 166.477,374.699 166.887,374.699 167.301,374.691 167.715,374.699 168.125,374.695 168.539,374.688 168.953,374.695 169.363,374.707 169.777,374.688 170.188,374.684 170.602,374.691 171.016,374.676 171.426,374.688 171.84,374.695 172.25,374.676 172.664,374.68 173.078,374.676 173.488,374.695 173.902,374.691 174.316,374.664 174.727,374.68 175.141,374.672 175.551,374.66 175.965,374.66 176.379,374.668 176.789,374.637 177.203,374.656 177.617,374.66 178.027,374.641 178.441,374.648 178.852,374.668 179.266,374.656 179.68,374.641 180.09,374.648 180.504,374.637 180.918,374.633 181.328,374.656 181.742,374.629 182.152,374.641 182.566,374.648 182.98,374.648 183.391,374.641 183.805,374.629 184.215,374.641 184.629,374.652 185.043,374.648 185.453,374.621 185.867,374.641 186.281,374.645 186.691,374.645 187.105,374.629 187.516,374.617 187.93,374.617 188.344,374.641 188.754,374.645 189.168,374.637 189.582,374.633 189.992,374.629 190.406,374.625 190.816,374.637 191.23,374.652 191.645,374.664 192.055,374.652 192.469,374.629 192.883,374.625 193.293,374.641 193.707,374.637 194.117,374.645 194.531,374.648 194.945,374.68 195.355,374.641 195.77,374.664 196.18,374.633 196.594,374.652 197.008,374.637 197.418,374.641 197.832,374.664 198.246,374.637 198.656,374.641 199.07,374.633 199.48,374.664 199.895,374.629 200.309,374.629 200.719,374.645 201.133,374.656 201.547,374.656 201.957,374.652 202.371,374.664 202.781,374.652 203.195,374.652 203.609,374.664 204.02,374.641 204.434,374.648 204.848,374.641 205.258,374.637 205.672,374.645 206.082,374.66 206.496,374.648 206.91,374.664 207.32,374.648 207.734,374.656 208.145,374.652 208.559,374.648 208.973,374.648 209.383,374.66 209.797,374.656 210.211,374.668 210.621,374.668 211.035,374.66 211.445,374.672 211.859,374.664 212.273,374.648 212.684,374.641 213.098,374.652 213.512,374.668 213.922,374.645 214.336,374.656 214.746,374.641 215.16,374.625 215.574,374.652 215.984,374.645 216.398,374.664 216.813,374.652 217.223,374.645 217.637,374.641 218.047,374.66 218.461,374.637 218.875,374.641 219.285,374.648 219.699,374.652 220.109,374.641 220.523,374.633 220.938,374.652 221.348,374.641 221.762,374.633 222.176,374.645 222.586,374.641 223,374.617 223.41,374.645 223.824,374.617 224.238,374.625 224.648,374.609 225.063,374.629 225.477,374.594 225.887,374.621 226.301,374.594 226.711,374.602 227.125,374.609 227.539,374.621 227.949,374.605 228.363,374.617 228.777,374.602 229.188,374.609 229.602,374.602 230.012,374.598 230.426,374.602 230.84,374.625 231.25,374.59 231.664,374.594 232.074,374.621 232.488,374.602 232.902,374.598 233.313,374.586 233.727,374.57 234.141,374.582 234.551,374.582 234.965,374.578 235.375,374.59 235.789,374.551 236.203,374.586 236.613,374.566 237.027,374.566 237.441,374.578 237.852,374.59 238.266,374.566 238.676,374.563 239.09,374.582 239.504,374.566 239.914,374.598 240.328,374.566 240.742,374.566 241.152,374.566 241.566,374.555 241.977,374.59 242.391,374.563 242.805,374.578 243.215,374.574 243.629,374.57 244.039,374.578 244.453,374.582 244.867,374.555 245.277,374.582 245.691,374.535 246.105,374.578 246.516,374.574 246.93,374.563 247.34,374.594 247.754,374.578 248.168,374.574 248.578,374.551 248.992,374.578 249.406,374.551 249.816,374.59 250.23,374.574 250.641,374.563 251.055,374.578 251.469,374.59 251.879,374.566 252.293,374.574 252.707,374.547 253.117,374.574 253.531,374.566 253.941,374.566 254.355,374.566 254.77,374.582 255.18,374.566 255.594,374.57 256.004,374.566 256.418,374.547 256.832,374.563 257.242,374.566 257.656,374.559 258.07,374.543 258.48,374.559 258.895,374.551 259.305,374.539 259.719,374.563 260.133,374.543 260.543,374.547 260.957,374.559 261.371,374.566 261.781,374.547 262.195,374.566 262.605,374.566 263.02,374.547 263.434,374.539 263.844,374.551 264.258,374.563 264.672,374.543 265.082,374.539 265.496,374.559 265.906,374.57 266.32,374.574 266.734,374.539 267.145,374.574 267.559,374.559 267.969,374.543 268.383,374.566 268.797,374.555 269.207,374.543 269.621,374.555 270.035,374.566 270.445,374.57 270.859,374.559 271.27,374.543 271.684,374.563 272.098,374.551 272.508,374.547 272.922,374.539 273.336,374.563 273.746,374.547 274.16,374.559 274.57,374.559 274.984,374.555 275.398,374.574 275.809,374.566 276.223,374.555 276.637,374.531 277.047,374.566 277.461,374.563 277.871,374.574 278.285,374.57 278.699,374.559 279.109,374.555 279.523,374.555 279.934,374.551 280.348,374.555 280.762,374.563 281.172,374.547 281.586,374.559 282,374.543 282.41,374.555 282.824,374.57 283.234,374.559 283.648,374.555 284.063,374.551 284.473,374.566 284.887,374.551 285.301,374.555 285.711,374.582 286.125,374.551 286.535,374.566 286.949,374.559 287.363,374.547 287.773,374.559 288.188,374.527 288.602,374.566 289.012,374.539 289.426,374.582 289.836,374.566 290.25,374.551 290.664,374.539 291.074,374.559 291.488,374.543 291.898,374.559 292.313,374.559 292.727,374.543 293.137,374.535 293.551,374.559 293.965,374.555 294.375,374.555 294.789,374.566 295.199,374.543 295.613,374.574 296.027,374.586 296.438,374.551 296.852,374.57 297.266,374.555 297.676,374.563 298.09,374.559 298.5,374.57 298.914,374.563 299.328,374.578 299.738,374.555 300.152,374.559 300.566,374.566 300.977,374.578 301.391,374.566 301.801,374.594 302.215,374.566 302.629,374.57 303.039,374.582 303.453,374.578 303.863,374.594 304.277,374.578 304.691,374.59 305.102,374.551 305.516,374.566 305.93,374.594 306.34,374.574 306.754,374.578 307.164,374.586 307.578,374.586 307.992,374.574 308.402,374.559 308.816,374.574 309.23,374.555 309.641,374.574 310.055,374.551 310.465,374.566 310.879,374.574 311.293,374.574 311.703,374.563 312.117,374.578 312.531,374.59 312.941,374.559 313.355,374.563 313.766,374.578 314.18,374.586 314.594,374.586 315.004,374.566 315.418,374.578 315.828,374.582 316.242,374.594 316.656,374.586 317.066,374.605 317.48,374.578 317.895,374.578 318.305,374.594 318.719,374.578 319.129,374.605 319.543,374.594 319.957,374.613 320.367,374.598 320.781,374.598 321.195,374.609 321.605,374.625 322.02,374.598 322.43,374.621 322.844,374.633 323.258,374.613 323.668,374.617 324.082,374.617 324.496,374.613 324.906,374.609 325.32,374.613 325.73,374.617 326.145,374.617 326.559,374.637 326.969,374.625 327.383,374.621 327.793,374.617 328.207,374.613 328.621,374.629 329.031,374.641 329.445,374.637 329.859,374.621 330.27,374.648 330.684,374.637 331.094,374.641 331.508,374.625 331.922,374.637 332.332,374.648 332.746,374.641 333.16,374.637 333.57,374.656 333.984,374.645 334.395,374.645 334.809,374.656 335.223,374.652 335.633,374.641 336.047,374.652 336.461,374.641 336.871,374.641 337.285,374.66 337.695,374.633 338.109,374.637 338.523,374.641 338.934,374.648 339.348,374.637 339.758,374.641 340.172,374.645 340.586,374.637 340.996,374.648 341.41,374.641 341.824,374.652 342.234,374.633 342.648,374.625 343.059,374.625 343.473,374.621 343.887,374.637 344.297,374.648 344.711,374.645 345.125,374.637 345.535,374.637 345.949,374.637 346.359,374.621 346.773,374.633 347.188,374.633 347.598,374.645 348.012,374.629 348.426,374.637 348.836,374.637 349.25,374.633 349.66,374.629 350.074,374.629 350.488,374.621 350.898,374.645 351.313,374.641 351.723,374.645 352.137,374.645 352.551,374.637 352.961,374.641 353.375,374.66 353.789,374.625 354.199,374.648 354.613,374.641 355.023,374.637 355.438,374.629 355.852,374.633 356.262,374.617 356.676,374.637 357.09,374.637 357.5,374.625 357.914,374.641 358.324,374.645 358.738,374.645 359.152,374.656 359.563,374.648 359.977,374.633 360.391,374.629 360.801,374.652 361.215,374.617 361.625,374.613 362.039,374.637 362.453,374.613 362.863,374.648 363.277,374.633 363.688,374.637 364.102,374.629 364.516,374.652 364.926,374.637 365.34,374.652 365.754,374.648 366.164,374.645 366.578,374.621 366.988,374.652 367.402,374.617 367.816,374.648 368.227,374.629 368.641,374.625 369.055,374.648 369.465,374.625 369.879,374.66 370.289,374.637 370.703,374.648 371.117,374.641 371.527,374.66 371.941,374.656 372.355,374.652 372.766,374.641 373.18,374.648 373.59,374.648 374.004,374.66 374.418,374.656 374.828,374.66 375.242,374.676 375.652,374.672 376.066,374.672 376.48,374.668 376.891,374.66 377.305,374.695 377.719,374.688 378.129,374.691 378.543,374.688 378.953,374.684 379.367,374.672 379.781,374.668 380.191,374.688 380.605,374.688 381.02,374.684 381.43,374.699 381.844,374.684 382.254,374.688 382.668,374.715 383.082,374.684 383.492,374.711 383.906,374.684 384.316,374.711 384.73,374.699 385.145,374.711 385.555,374.707 385.969,374.707 386.383,374.723 386.793,374.703 387.207,374.699 387.617,374.711 388.031,374.695 388.445,374.719 388.855,374.707 389.27,374.715 389.684,374.703 390.094,374.73 390.508,374.727 390.918,374.719 391.332,374.711 391.746,374.719 392.156,374.711 392.57,374.727 392.984,374.738 393.395,374.727 393.809,374.742 394.219,374.727 394.633,374.727 395.047,374.742 395.457,374.703 395.871,374.734 396.285,374.727 396.695,374.723 397.109,374.73 397.52,374.75 397.934,374.75 398.348,374.742 398.758,374.734 399.172,374.746 399.582,374.754 399.996,374.738 400.41,374.754 400.82,374.766 401.234,374.746 401.648,374.746 402.059,374.762 402.473,374.75 402.883,374.77 403.297,374.77 403.711,374.77 404.121,374.773 404.535,374.77 404.949,374.777 405.359,374.773 405.773,374.789 406.184,374.785 406.598,374.797 407.012,374.805 407.422,374.781 407.836,374.801 408.25,374.785 408.66,374.793 409.074,374.82 409.484,374.805 409.898,374.809 410.313,374.816 410.723,374.809 411.137,374.828 411.547,374.82 411.961,374.828 412.375,374.816 412.785,374.824 413.199,374.824 413.613,374.84 414.023,374.84 414.438,374.844 414.848,374.84 415.262,374.855 415.676,374.832 416.086,374.848 416.5,374.848 416.914,374.828 417.324,374.855 417.738,374.84 418.148,374.832 418.563,374.867 418.977,374.828 419.387,374.859 419.801,374.844 420.211,374.859 420.625,374.855 421.039,374.852 421.449,374.84 421.863,374.852 422.277,374.828 422.688,374.84 423.102,374.824 423.512,374.852 423.926,374.84 424.34,374.852 424.75,374.855 425.164,374.859 425.578,374.844 425.988,374.867 426.402,374.852 426.813,374.883 427.227,374.863 427.641,374.848 428.051,374.863 428.465,374.875 428.879,374.887 429.289,374.887 429.703,374.871 430.113,374.898 430.527,374.883 430.941,374.902 431.352,374.91 431.766,374.895 432.18,374.902 432.59,374.906 433.004,374.938 433.414,374.918 433.828,374.926 434.242,374.918 434.652,374.926 435.066,374.914 435.477,374.922 435.891,374.93 436.305,374.93 436.715,374.953 437.129,374.934 437.543,374.957 437.953,374.949 438.367,374.941 438.777,374.949 439.191,374.961 439.605,374.977 440.016,374.973 440.43,374.992 440.844,374.977 441.254,374.969 441.668,374.973 442.078,374.988 442.492,374.977 442.906,374.992 443.316,374.996 443.73,375 444.141,375 444.555,375.008 444.969,375.016 445.379,375.023 445.793,375.035 446.207,375.016 446.617,375.016 447.031,375.039 447.441,375.043 447.855,375.035 448.27,375.066 448.68,375.031 449.094,375.051 449.508,375.031 449.918,375.055 450.332,375.066 450.742,375.082 451.156,375.074 451.57,375.078 451.98,375.094 452.395,375.082 452.809,375.066 453.219,375.102 453.633,375.074 454.043,375.086 454.457,375.109 454.871,375.094 455.281,375.102 455.695,375.117 456.105,375.113 456.52,375.109 456.934,375.113 457.344,375.133 457.758,375.129 458.172,375.145 458.582,375.148 458.996,375.152 459.406,375.168 459.82,375.172 460.234,375.164 460.645,375.176 461.059,375.195 461.473,375.188 461.883,375.207 462.297,375.195 462.707,375.211 463.121,375.211 463.535,375.227 463.945,375.223 464.359,375.234 464.773,375.25 465.184,375.25 465.598,375.254 466.008,375.258 466.422,375.262 466.836,375.285 467.246,375.309 467.66,375.285 468.07,375.301 468.484,375.305 468.898,375.309 469.309,375.316 469.723,375.328 470.137,375.332 470.547,375.352 470.961,375.375 471.371,375.359 471.785,375.371 472.199,375.383 472.609,375.391 473.023,375.41 473.438,375.426 473.848,375.426 474.262,375.438 474.672,375.449 475.086,375.453 475.5,375.496 475.91,375.488 476.324,375.5 476.738,375.52 477.148,375.539 477.563,375.559 477.973,375.57 478.387,375.582 478.801,375.59 479.211,375.625 479.625,375.633 480.035,375.652 480.449,375.68 480.863,375.695 481.273,375.719 481.688,375.746 482.102,375.773 482.512,375.805 482.926,375.844 483.336,375.875 483.75,375.922 484.164,375.969 484.574,376.02 484.988,376.09 485.402,376.191 485.813,376.328 486.227,376.547 486.637,376.547 487.051,376.547"/>
<polyline fill="none" stroke="#ff00ff" stroke-width="2" points="74.8828,64.7305 75.2969,133.797 75.707,166.734 76.1211,189.656 76.5313,204.699 76.9453,223.262 77.3594,250.621 77.7695,266.445 78.1836,301.047 78.5977,307.637 79.0078,324.371 79.4219,337.316 79.832,331.223 80.2461,342.422 80.6602,349.055 81.0703,349.402 81.4844,352.934 81.8984,353.188 82.3086,356.066 82.7227,357.055 83.1328,359.195 83.5469,360.582 83.9609,362.402 84.3711,361.98 84.7852,362.848 85.1992,362.652 85.6094,365.617 86.0234,366.109 86.4336,365.262 86.8477,366.168 87.2617,366.773 87.6719,366.285 88.0859,368.168 88.4961,366.98 88.9102,368.098 89.3242,368.262 89.7344,368.766 90.1484,369.984 90.5625,368.629 90.9727,368.707 91.3867,369.488 91.7969,369.223 92.2109,369.344 92.625,369.797 93.0352,369.922 93.4492,369.078 93.8633,368.871 94.2734,369.18 94.6875,370.113 95.0977,370.301 95.5117,369.145 95.9258,369.484 96.3359,370.004 96.75,370.172 97.1641,370.547 97.5742,369.996 97.9883,370.188 98.3984,370.047 98.8125,370.18 99.2266,369.938 99.6367,370.25 100.051,370.047 100.461,370.059 100.875,369.852 101.289,369.613 101.699,369.988 102.113,370.113 102.527,369.699 102.938,370.016 103.352,370.168 103.762,370.109 104.176,370.016 104.59,370.004 105,369.641 105.414,369.602 105.828,369.426 106.238,369.609 106.652,369.773 107.063,369.445 107.477,369.676 107.891,369.77 108.301,369.332 108.715,369.27 109.129,369.332 109.539,370 109.953,369.297 110.363,369.387 110.777,369.324 111.191,369.652 111.602,368.727 112.016,368.801 112.426,368.777 112.84,368.617 113.254,368.828 113.664,368.879 114.078,369.109 114.492,369.469 114.902,368.234 115.316,369.098 115.727,367.977 116.141,368.57 116.555,369.148 116.965,368.172 117.379,368.691 117.793,368.473 118.203,368.289 118.617,368.473 119.027,368.32 119.441,368.375 119.855,367.824 120.266,368.227 120.68,368.359 121.094,367.691 121.504,367.879 121.918,367.742 122.328,367.684 122.742,368.109 123.156,367.512 123.566,367.945 123.98,367.922 124.391,367.223 124.805,367.805 125.219,366.953 125.629,367.23 126.043,367.027 126.457,367.961 126.867,367.566 127.281,367.473 127.691,367.711 128.105,366.715 128.52,368.027 128.93,366.57 129.344,366.418 129.758,367 130.168,366.93 130.582,367.664 130.992,367.164 131.406,366.492 131.82,367.332 132.23,366.09 132.645,366.883 133.059,366.672 133.469,366.152 133.883,365.988 134.293,365.828 134.707,366.41 135.121,365.906 135.531,366.266 135.945,366.246 136.355,365.18 136.77,366.797 137.184,365.141 137.594,366.461 138.008,366.102 138.422,365.141 138.832,365.992 139.246,364.746 139.656,366.305 140.07,364.879 140.484,365.133 140.895,365.422 141.309,365.863 141.723,365.227 142.133,365.848 142.547,365.309 142.957,365.035 143.371,364.508 143.785,365.496 144.195,365.637 144.609,365.32 145.023,364.289 145.434,365.129 145.848,365.465 146.258,363.977 146.672,364.129 147.086,364.441 147.496,365.297 147.91,364.086 148.32,363.797 148.734,363.324 149.148,363.406 149.559,364.313 149.973,365.074 150.387,364.68 150.797,363.707 151.211,363.309 151.621,363.953 152.035,364.363 152.449,364.824 152.859,363.707 153.273,364.531 153.688,363.164 154.098,363.574 154.512,363.246 154.922,363.969 155.336,363.027 155.75,363.43 156.16,363.426 156.574,363.559 156.988,362.977 157.398,364.023 157.813,363.473 158.223,363.406 158.637,362.887 159.051,363.652 159.461,363.277 159.875,362.535 160.285,363.781 160.699,363.176 161.113,363.289 161.523,362.676 161.938,362.633 162.352,361.617 162.762,363.461 163.176,361.84 163.586,362.668 164,362.34 164.414,361.738 164.824,362.059 165.238,362.016 165.652,361.691 166.063,362.711 166.477,362.523 166.887,362.02 167.301,362.848 167.715,362.285 168.125,362.055 168.539,361.68 168.953,362.563 169.363,361.613 169.777,361.359 170.188,361.574 170.602,361.824 171.016,360.34 171.426,362.43 171.84,361.344 172.25,362.336 172.664,360.883 173.078,361.113 173.488,360.137 173.902,361.367 174.316,360.289 174.727,360.742 175.141,359.531 175.551,361.426 175.965,361 176.379,359.648 176.789,361.344 177.203,361.086 177.617,359.414 178.027,361.785 178.441,361.461 178.852,359.926 179.266,359.82 179.68,360.375 180.09,360 180.504,360.195 180.918,360.375 181.328,359.402 181.742,360.086 182.152,359.082 182.566,361.176 182.98,360.113 183.391,359.902 183.805,359.961 184.215,359.113 184.629,360.133 185.043,361.297 185.453,359.906 185.867,359.34 186.281,358.797 186.691,358.477 187.105,360.219 187.516,359.398 187.93,359.414 188.344,359.023 188.754,359.988 189.168,360.332 189.582,358.148 189.992,359.082 190.406,357.777 190.816,359.23 191.23,358.465 191.645,357.68 192.055,359.453 192.469,358.852 192.883,358.203 193.293,358.703 193.707,357.676 194.117,358.602 194.531,359.141 194.945,358.691 195.355,357.602 195.77,358.93 196.18,357.172 196.594,357.398 197.008,357.68 197.418,357.477 197.832,358.508 198.246,359.113 198.656,359.559 199.07,356.523 199.48,357.188 199.895,357.973 200.309,356.957 200.719,358.07 201.133,358.523 201.547,357.969 201.957,358.285 202.371,357.684 202.781,356.73 203.195,357.902 203.609,357.449 204.02,357.547 204.434,356.098 204.848,356.602 205.258,356.648 205.672,358.789 206.082,357.879 206.496,356.879 206.91,356.688 207.32,357.508 207.734,356.957 208.145,357.832 208.559,357.051 208.973,357.117 209.383,356.707 209.797,356.078 210.211,356.727 210.621,355.883 211.035,356.961 211.445,355.602 211.859,355.855 212.273,354.762 212.684,356.688 213.098,356.199 213.512,355.828 213.922,356.133 214.336,356.156 214.746,357.16 215.16,356.414 215.574,356.578 215.984,355.316 216.398,354.715 216.813,354.48 217.223,354.359 217.637,356.02 218.047,355.824 218.461,355.621 218.875,354.402 219.285,354.23 219.699,355.496 220.109,355.766 220.523,355.563 220.938,355.391 221.348,355.434 221.762,355.156 222.176,354.766 222.586,354.844 223,355.504 223.41,354.34 223.824,354.262 224.238,353.711 224.648,354.633 225.063,354.742 225.477,354.848 225.887,353.582 226.301,354.719 226.711,354.738 227.125,354.027 227.539,352.707 227.949,354.84 228.363,354.496 228.777,355.512 229.188,354.234 229.602,354.156 230.012,353.402 230.426,354.41 230.84,352.508 231.25,352.879 231.664,355.527 232.074,353.289 232.488,352.734 232.902,352.664 233.313,352.336 233.727,355.203 234.141,353.695 234.551,352.809 234.965,353.27 235.375,353.195 235.789,353.574 236.203,352.609 236.613,352.457 237.027,351.949 237.441,353.195 237.852,352.367 238.266,352.434 238.676,352.988 239.09,351.344 239.504,351.895 239.914,351.555 240.328,352.719 240.742,352.324 241.152,352.586 241.566,352.379 241.977,351.535 242.391,352.16 242.805,352.793 243.215,351.453 243.629,352.941 244.039,351.086 244.453,351.73 244.867,352.238 245.277,351.574 245.691,354.32 246.105,352.027 246.516,351.797 246.93,350.578 247.34,351.215 247.754,351.719 248.168,350.789 248.578,350.516 248.992,351.297 249.406,352.625 249.816,350.594 250.23,351.398 250.641,349.832 251.055,349.605 251.469,352.219 251.879,350.73 252.293,351.465 252.707,350.957 253.117,350.316 253.531,350.227 253.941,349.039 254.355,350.043 254.77,350.688 255.18,351.273 255.594,349.719 256.004,350.32 256.418,349.473 256.832,351.074 257.242,352.176 257.656,349.941 258.07,349.098 258.48,350.766 258.895,349.227 259.305,350.348 259.719,350.301 260.133,349.793 260.543,349.211 260.957,350.355 261.371,349.691 261.781,349.336 262.195,348.59 262.605,350.078 263.02,349.328 263.434,349.066 263.844,349.469 264.258,348.723 264.672,350.207 265.082,349.168 265.496,348.051 265.906,348.754 266.32,348.484 266.734,349.785 267.145,348.598 267.559,349.688 267.969,348.109 268.383,348.652 268.797,348.641 269.207,348.043 269.621,349.391 270.035,348.504 270.445,348.063 270.859,347.914 271.27,348.875 271.684,347.473 272.098,347.109 272.508,348.852 272.922,349.605 273.336,347.859 273.746,349.891 274.16,348.031 274.57,347.551 274.984,347.039 275.398,349.059 275.809,348.293 276.223,348.523 276.637,348.668 277.047,347.953 277.461,347.23 277.871,346.129 278.285,346.223 278.699,347.023 279.109,347.93 279.523,346.152 279.934,347.332 280.348,346.164 280.762,346.941 281.172,346.656 281.586,344.836 282,348.203 282.41,346.902 282.824,346.918 283.234,345.547 283.648,346.32 284.063,346.539 284.473,346.016 284.887,345.148 285.301,345.813 285.711,346.699 286.125,346.324 286.535,345.336 286.949,346.137 287.363,345.66 287.773,344.781 288.188,346.336 288.602,346.465 289.012,346.301 289.426,344.949 289.836,345.875 290.25,344.859 290.664,345.496 291.074,346.387 291.488,345.82 291.898,346.273 292.313,345.395 292.727,345.109 293.137,346.211 293.551,344.859 293.965,344.188 294.375,344.836 294.789,344.715 295.199,344.773 295.613,345.375 296.027,343.816 296.438,344.355 296.852,344.277 297.266,344.805 297.676,343.801 298.09,345.348 298.5,343.57 298.914,343.551 299.328,345.398 299.738,344.828 300.152,345.543 300.566,344.387 300.977,342.887 301.391,344.602 301.801,343.949 302.215,344.105 302.629,341.73 303.039,341.965 303.453,344.148 303.863,343.359 304.277,343.559 304.691,343.406 305.102,344.047 305.516,343.059 305.93,343.273 306.34,343.742 306.754,343.77 307.164,341.66 307.578,343.254 307.992,343.383 308.402,344.551 308.816,342.871 309.23,343.629 309.641,341.48 310.055,344.914 310.465,342.09 310.879,341.699 311.293,342.031 311.703,344.566 312.117,341.891 312.531,341.25 312.941,343.898 313.355,342.938 313.766,340.219 314.18,341.992 314.594,342.855 315.004,341.793 315.418,342.691 315.828,341.191 316.242,342.012 316.656,342.285 317.066,342.223 317.48,341.52 317.895,342.059 318.305,340.145 318.719,340.34 319.129,341.305 319.543,342.242 319.957,342.496 320.367,341.301 320.781,341.77 321.195,339.906 321.605,340.059 322.02,340.23 322.43,338.836 322.844,340.699 323.258,340.051 323.668,340.941 324.082,340.074 324.496,339.855 324.906,339.617 325.32,341.074 325.73,339.063 326.145,339.918 326.559,339.875 326.969,339.27 327.383,339.621 327.793,340.367 328.207,339.957 328.621,340.469 329.031,339.316 329.445,339.766 329.859,339.469 330.27,337.551 330.684,339.465 331.094,338.992 331.508,339.883 331.922,339.93 332.332,339.16 332.746,339.41 333.16,338.672 333.57,340.227 333.984,338.43 334.395,338.223 334.809,338.57 335.223,335.875 335.633,338.465 336.047,338.035 336.461,340.098 336.871,338.785 337.285,337.152 337.695,338.137 338.109,337.246 338.523,338.648 338.934,338.68 339.348,337.98 339.758,337.871 340.172,336.129 340.586,338.043 340.996,337.148 341.41,337.871 341.824,336.336 342.234,336.828 342.648,336.59 343.059,337.883 343.473,337.652 343.887,337.273 344.297,336.168 344.711,336.754 345.125,337.547 345.535,337.738 345.949,334.875 346.359,335.863 346.773,337.281 347.188,335.617 347.598,335.656 348.012,336.059 348.426,336.406 348.836,334.848 349.25,335.773 349.66,336.285 350.074,336.422 350.488,335.824 350.898,334.578 351.313,333.707 351.723,335.094 352.137,335.527 352.551,335.848 352.961,334.465 353.375,334.102 353.789,335.734 354.199,333.504 354.613,334.531 355.023,332.805 355.438,334.559 355.852,334.887 356.262,333.668 356.676,333.305 357.09,335.039 357.5,334.277 357.914,333.594 358.324,333.289 358.738,332.688 359.152,331.531 359.563,332.125 359.977,334.438 360.391,333.523 360.801,334.305 361.215,332.992 361.625,333.324 362.039,332.699 362.453,333.484 362.863,332.902 363.277,333.055 363.688,332.727 364.102,332.434 364.516,333.664 364.926,333.051 365.34,331.754 365.754,332.855 366.164,332.609 366.578,332.719 366.988,331.953 367.402,333.707 367.816,330.328 368.227,330.223 368.641,331.117 369.055,331.18 369.465,332.047 369.879,332.848 370.289,333.168 370.703,332.254 371.117,331.934 371.527,331.805 371.941,330.813 372.355,330.633 372.766,332.473 373.18,332.574 373.59,329.949 374.004,330.602 374.418,331.012 374.828,331.527 375.242,330.156 375.652,330.266 376.066,328.52 376.48,330.301 376.891,329.813 377.305,328.957 377.719,329.371 378.129,329.074 378.543,330.113 378.953,329.148 379.367,329.145 379.781,329.465 380.191,329.43 380.605,328.195 381.02,328.625 381.43,329.105 381.844,327.652 382.254,329.855 382.668,327.871 383.082,329.449 383.492,328.996 383.906,329.719 384.316,326.766 384.73,326.961 385.145,328.281 385.555,327.453 385.969,327.465 386.383,327.129 386.793,325.828 387.207,326.551 387.617,325.836 388.031,326.785 388.445,327.477 388.855,325.012 389.27,326.602 389.684,326.488 390.094,326.945 390.508,327.215 390.918,326.492 391.332,326.336 391.746,325.461 392.156,326.914 392.57,326.262 392.984,325.75 393.395,324.641 393.809,324.859 394.219,324.762 394.633,325.688 395.047,324.301 395.457,325.051 395.871,325.813 396.285,327.387 396.695,323.875 397.109,324.418 397.52,324.98 397.934,324.391 398.348,326.496 398.758,324.809 399.172,323.66 399.582,324.43 399.996,323.301 400.41,323.75 400.82,323.641 401.234,324.18 401.648,323.164 402.059,321.664 402.473,323.945 402.883,322.668 403.297,322.816 403.711,322.266 404.121,322.43 404.535,322.258 404.949,322.207 405.359,323.211 405.773,323.895 406.184,322.469 406.598,320.887 407.012,321.34 407.422,320.324 407.836,322.523 408.25,321.926 408.66,322.082 409.074,322.023 409.484,320.523 409.898,320.098 410.313,320.492 410.723,320.41 411.137,320.844 411.547,321.695 411.961,319.461 412.375,321.375 412.785,322.152 413.199,320.383 413.613,318.723 414.023,318.742 414.438,317.828 414.848,319.328 415.262,317.633 415.676,319.027 416.086,318.676 416.5,318.859 416.914,318.73 417.324,317.832 417.738,319.57 418.148,320.363 418.563,316.473 418.977,318.508 419.387,317.16 419.801,316.801 420.211,316.023 420.625,316.074 421.039,315.883 421.449,317.906 421.863,315.188 422.277,318.324 422.688,316.648 423.102,316.688 423.512,314.996 423.926,315.547 424.34,315.699 424.75,313.914 425.164,315.266 425.578,313.629 425.988,313.965 426.402,313.715 426.813,313.297 427.227,312.156 427.641,314.824 428.051,313.91 428.465,311.473 428.879,312.895 429.289,312.273 429.703,313.547 430.113,312.219 430.527,311.285 430.941,311.113 431.352,311.41 431.766,312.16 432.18,313.063 432.59,311.398 433.004,309.293 433.414,311.895 433.828,309.922 434.242,309.961 434.652,311.523 435.066,311.188 435.477,309.242 435.891,310.512 436.305,309.75 436.715,306.5 437.129,307.574 437.543,308.211 437.953,308.625 438.367,308.063 438.777,309.031 439.191,309.188 439.605,307.742 440.016,307.031 440.43,305.719 440.844,307.477 441.254,306.25 441.668,307.313 442.078,305.188 442.492,305.598 442.906,306.613 443.316,307.77 443.73,303.91 444.141,305.414 444.555,303.047 444.969,304.281 445.379,303.875 445.793,303.406 446.207,303.102 446.617,304.254 447.031,302.223 447.441,301.629 447.855,304.223 448.27,302.531 448.68,303.066 449.094,301.832 449.508,302.555 449.918,301.43 450.332,300.242 450.742,297.75 451.156,298.855 451.57,300.113 451.98,299.898 452.395,298.504 452.809,298.859 453.219,297.68 453.633,298.25 454.043,298.457 454.457,297.266 454.871,296.684 455.281,296.781 455.695,295.914 456.105,295.238 456.52,295.891 456.934,294.152 457.344,294.777 457.758,293.734 458.172,293.047 458.582,292.906 458.996,292.266 459.406,291.23 459.82,291.242 460.234,290.934 460.645,291.043 461.059,289.98 461.473,290.563 461.883,287.359 462.297,288.18 462.707,288.93 463.121,287.25 463.535,286.77 463.945,285.926 464.359,285.012 464.773,288.219 465.184,283.703 465.598,283.875 466.008,284.387 466.422,283.402 466.836,283.137 467.246,281.711 467.66,280.738 468.07,279.754 468.484,282.461 468.898,279.313 469.309,278.824 469.723,277.781 470.137,277.012 470.547,276.141 470.961,275.578 471.371,272.926 471.785,273.574 472.199,272.668 472.609,271.453 473.023,270.633 473.438,267.195 473.848,269.375 474.262,267.75 474.672,265.496 475.086,265.68 475.5,264.652 475.91,262.984 476.324,262.426 476.738,260.223 477.148,257.695 477.563,256.527 477.973,256.219 478.387,252.887 478.801,251.34 479.211,249.27 479.625,245.758 480.035,245.215 480.449,241.195 480.863,238.188 481.273,239.719 481.688,232.836 482.102,231.84 482.512,223.746 482.926,219.609 483.336,215.422 483.75,208.715 484.164,201.836 484.574,193.742 484.988,179.746 485.402,163.941 485.813,134.215 486.227,65.1875"/>
<polyline fill="none" stroke="#ff00ff" stroke-width="2" points="486.637,64.7305 487.051,64.7305"/>
<text fill="#000000" x="280.969" y="22.4063" font-size="11" text-anchor="middle" baseline-shift="0" font-family="Helvetica" font-weight="bold">Number of inversions vs number of steps</text>
</g>
<clipPath id="cp00560415">
  <polygon points="0,415 560,415 560,0 0,0"/>
</clipPath>
<g clip-path="url(#cp00560415)">
<polygon fill="#ffffff" points="493.523,94.7188 559.996,32.4023 493.523,32.4023"/>
<polygon fill="#ffffff" points="493.523,94.7188 559.996,94.7188 559.996,32.4023"/>
<polyline fill="none" stroke="#262626" stroke-width="0.5" stroke-dasharray="16,0" points="493.523,94.7188 559.996,94.7188"/>
<polyline fill="none" stroke="#262626" stroke-width="0.5" stroke-dasharray="16,0" points="493.523,32.4023 559.996,32.4023"/>
<polyline fill="none" stroke="#262626" stroke-width="0.5" stroke-dasharray="16,0" points="493.523,94.7188 493.523,32.4023"/>
<text fill="#000000" x="524.266" y="40.1953" font-size="10" text-anchor="start" baseline-shift="-5" font-family="Helvetica">selection</text>
<text fill="#000000" x="524.266" y="55.7734" font-size="10" text-anchor="start" baseline-shift="-5" font-family="Helvetica">insertion</text>
<text fill="#000000" x="524.266" y="71.3555" font-size="10" text-anchor="start" baseline-shift="-5" font-family="Helvetica">merge</text>
<text fill="#000000" x="524.266" y="86.9336" font-size="10" text-anchor="start" baseline-shift="-5" font-family="Helvetica">quick</text>
<polyline fill="none" stroke="#ff0000" stroke-width="2" points="496.758,40.1914 521.031,40.1914"/>
<polyline fill="none" stroke="#00ff00" stroke-width="2" points="496.758,55.7695 521.031,55.7695"/>
<polyline fill="none" stroke="#000000" stroke-width="2" points="496.758,71.3516 521.031,71.3516"/>
<polyline fill="none" stroke="#ff00ff" stroke-width="2" points="496.758,86.9297 521.031,86.9297"/>
</g>
</g>
</svg>
